<svg width="27" height="25" viewBox="0 0 27 25" xmlns="http://www.w3.org/2000/svg">
    <path d="M25.9 24.29c0 .392-.311.71-.695.71H.695A.703.703 0 0 1 0 24.29c0-.393.31-.712.694-.712h24.511c.384 0 .694.319.694.711zM12.244 12.62a.683.683 0 0 0 .981-.034.723.723 0 0 0-.034-1.004c-1.19-1.138-.935-3.45.088-4.756 1.387-1.773 1.693-4.934-.088-6.635a.683.683 0 0 0-.98.035.723.723 0 0 0 .033 1.005c1.07 1.02 1.046 3.308-.049 4.706-.719.919-1.149 2.15-1.179 3.379-.033 1.342.403 2.516 1.228 3.305zM27 11.145v1.364c0 1.955-1.553 3.545-3.462 3.545h-1.55c-1.051 2.995-3.853 5.142-7.135 5.142h-3.806c-4.18 0-7.58-3.482-7.58-7.762V6.382c0-.393.31-.711.694-.711h4.452c.904-1.407.863-3.482-.14-4.44A.723.723 0 0 1 8.439.226.683.683 0 0 1 9.42.19c1.78 1.701 1.475 4.862.087 6.635-1.023 1.307-1.277 3.618-.087 4.755.28.268.296.718.034 1.005a.683.683 0 0 1-.981.035c-.826-.789-1.262-1.962-1.229-3.305a5.963 5.963 0 0 1 .496-2.224H4.855v6.341c0 3.496 2.777 6.34 6.192 6.34h3.806c3.414 0 6.192-2.844 6.192-6.34v-6.34h-5.219a.703.703 0 0 1-.694-.711c0-.393.31-.711.694-.711h5.913c.383 0 .694.318.694.71V7.6h1.105C25.448 7.6 27 9.19 27 11.144zm-1.388 0c0-1.17-.93-2.123-2.074-2.123h-1.105v5.61h1.105c1.144 0 2.074-.952 2.074-2.123v-1.364z" fill="#000" fill-rule="nonzero"/>
</svg>
