<svg width="24" height="24" viewBox="0 0 24 24" xmlns="http://www.w3.org/2000/svg">
    <g fill="#4F9300" fill-rule="evenodd">
        <path d="M20.8 0A3.184 3.184 0 0 1 24 3.186v8.59l-9.773 10.235a3.171 3.171 0 0 1-4.513.096l-7.482-7.225a3.224 3.224 0 0 1-.078-4.544L12.054 0zm.8 2.4h-8.898l-9.85 10.115 8.92 8.613L21.6 10.926V2.4z"/>
        <path d="M14.73 6.082c.368.035.73.139 1.088.312.358.174.688.404.992.69l.742-.786.432.41-.742.785c.302.288.55.598.742.933.192.336.312.676.357 1.025a2.4 2.4 0 0 1-.107 1.064 2.783 2.783 0 0 1-.645 1.034L16.44 10.46c.31-.355.47-.701.477-1.039.008-.336-.171-.678-.535-1.02l-2.012 2.126c.227.366.432.74.62 1.12.188.382.312.762.376 1.14.063.377.044.754-.057 1.13-.101.376-.323.746-.666 1.11a3.322 3.322 0 0 1-1.117.806c-.388.16-.779.232-1.168.212a3.114 3.114 0 0 1-1.158-.29 4.584 4.584 0 0 1-1.096-.72l-.744.783-.432-.408.744-.787a4.347 4.347 0 0 1-.837-1.117 3.088 3.088 0 0 1-.342-1.192c-.027-.41.04-.821.193-1.203.156-.4.415-.784.778-1.155l1.149 1.088h.001c-.425.437-.659.878-.699 1.325-.04.446.165.894.616 1.347l2.309-2.44a11.77 11.77 0 0 1-.57-1.043 4.112 4.112 0 0 1-.352-1.101 2.611 2.611 0 0 1 .056-1.12c.101-.376.327-.749.677-1.119.304-.323.635-.547.992-.675a2.455 2.455 0 0 1 1.087-.137zm-1.543 5.696-2.224 2.35h.002c.389.315.784.491 1.193.525.405.035.8-.149 1.181-.552.162-.16.28-.357.344-.575.05-.192.058-.393.023-.588a2.112 2.112 0 0 0-.199-.59 7.19 7.19 0 0 0-.32-.57zm.688-3.877c-.14.14-.24.316-.288.509a1.389 1.389 0 0 0-.02.536c.027.177.086.358.175.539.09.18.19.355.3.521L15.95 7.99c-.363-.342-.716-.532-1.056-.57-.342-.036-.681.126-1.019.48z"/>
    </g>
</svg>
